<svg xmlns="http://www.w3.org/2000/svg" width="1600" height="900" viewBox="0 0 1600 900">
  <defs><linearGradient id="bg2" x1="0" y1="0" x2="1" y2="1"><stop stop-color="#09090b"/><stop offset="1" stop-color="#18181b"/></linearGradient><filter id="s"><feDropShadow dx="0" dy="10" stdDeviation="14" flood-opacity=".25"/></filter><marker id="a" viewBox="0 0 10 10" refX="8" refY="5" markerWidth="7" markerHeight="7" orient="auto"><path d="M0 0l10 5-10 5z" fill="#71717a"/></marker></defs>
  <rect width="1600" height="900" fill="url(#bg2)"/>
  <text x="80" y="86" fill="#a78bfa" font-family="Inter,Segoe UI,sans-serif" font-size="22" font-weight="600" letter-spacing="3">NAXORA</text>
  <text x="80" y="140" fill="#fafafa" font-family="Inter,Segoe UI,sans-serif" font-size="44" font-weight="700">From Outfit to Shopping List</text>
  <text x="80" y="178" fill="#a1a1aa" font-family="Inter,Segoe UI,sans-serif" font-size="20">The agent keeps the user in one loop and chooses the technology behind each step.</text>
  <path d="M270 325H350M610 325H690M950 325H1030M1290 325H1370" stroke="#71717a" stroke-width="3" marker-end="url(#a)"/>
  <path d="M1450 405V555H1290M1030 635H950M690 635H610M350 635H270" fill="none" stroke="#71717a" stroke-width="3" marker-end="url(#a)"/>
  <path d="M145 715V795H760V735" fill="none" stroke="#52525b" stroke-width="3" stroke-dasharray="8 8" marker-end="url(#a)"/>

  <g filter="url(#s)"><rect x="70" y="245" width="200" height="160" rx="26" fill="#18181b" stroke="#3f3f46"/><circle cx="170" cy="285" r="22" fill="#27272a"/><text x="170" y="340" text-anchor="middle" fill="#fff" font-family="Inter,Segoe UI,sans-serif" font-size="23" font-weight="700">Upload fit</text><text x="170" y="372" text-anchor="middle" fill="#a1a1aa" font-family="Inter,Segoe UI,sans-serif" font-size="15">Current outfit photo</text></g>
  <g filter="url(#s)"><rect x="350" y="245" width="260" height="160" rx="26" fill="#231d35" stroke="#7c3aed"/><text x="480" y="306" text-anchor="middle" fill="#c4b5fd" font-family="Inter,Segoe UI,sans-serif" font-size="16">CONTEXT</text><text x="480" y="342" text-anchor="middle" fill="#fff" font-family="Inter,Segoe UI,sans-serif" font-size="23" font-weight="700">Ask two questions</text><text x="480" y="375" text-anchor="middle" fill="#c4b5fd" font-family="Inter,Segoe UI,sans-serif" font-size="15">Where? What goal?</text></g>
  <g filter="url(#s)"><rect x="690" y="245" width="260" height="160" rx="26" fill="#172554" stroke="#3b82f6"/><text x="820" y="306" text-anchor="middle" fill="#93c5fd" font-family="Inter,Segoe UI,sans-serif" font-size="16">VISION</text><text x="820" y="342" text-anchor="middle" fill="#fff" font-family="Inter,Segoe UI,sans-serif" font-size="23" font-weight="700">Analyze the look</text><text x="820" y="375" text-anchor="middle" fill="#bfdbfe" font-family="Inter,Segoe UI,sans-serif" font-size="15">Evidence + missing piece</text></g>
  <g filter="url(#s)"><rect x="1030" y="245" width="260" height="160" rx="26" fill="#422006" stroke="#f59e0b"/><text x="1160" y="306" text-anchor="middle" fill="#fcd34d" font-family="Inter,Segoe UI,sans-serif" font-size="16">SHOP</text><text x="1160" y="342" text-anchor="middle" fill="#fff" font-family="Inter,Segoe UI,sans-serif" font-size="23" font-weight="700">Find real products</text><text x="1160" y="375" text-anchor="middle" fill="#fde68a" font-family="Inter,Segoe UI,sans-serif" font-size="15">Best · lower price · premium</text></g>
  <g filter="url(#s)"><rect x="1370" y="245" width="160" height="160" rx="26" fill="#18181b" stroke="#3f3f46"/><text x="1450" y="312" text-anchor="middle" fill="#a78bfa" font-family="Inter,Segoe UI,sans-serif" font-size="16">AGENT</text><text x="1450" y="347" text-anchor="middle" fill="#fff" font-family="Inter,Segoe UI,sans-serif" font-size="21" font-weight="700">Recognize</text><text x="1450" y="375" text-anchor="middle" fill="#a1a1aa" font-family="Inter,Segoe UI,sans-serif" font-size="14">item type</text></g>

  <g filter="url(#s)"><path d="M1160 535l130 100-130 100-130-100z" fill="#18181b" stroke="#a78bfa" stroke-width="2"/><text x="1160" y="624" text-anchor="middle" fill="#fff" font-family="Inter,Segoe UI,sans-serif" font-size="21" font-weight="700">Try-on</text><text x="1160" y="650" text-anchor="middle" fill="#c4b5fd" font-family="Inter,Segoe UI,sans-serif" font-size="14">supported?</text></g>
  <text x="1305" y="612" fill="#6ee7b7" font-family="Inter,Segoe UI,sans-serif" font-size="15" font-weight="700">YES</text><text x="994" y="612" fill="#fca5a5" font-family="Inter,Segoe UI,sans-serif" font-size="15" font-weight="700">NO</text>
  <path d="M1290 635H1370" stroke="#71717a" stroke-width="3" marker-end="url(#a)"/><path d="M1030 635H950" stroke="#71717a" stroke-width="3" marker-end="url(#a)"/>
  <g filter="url(#s)"><rect x="1370" y="565" width="160" height="140" rx="24" fill="#14342b" stroke="#10b981"/><text x="1450" y="623" text-anchor="middle" fill="#fff" font-family="Inter,Segoe UI,sans-serif" font-size="20" font-weight="700">Create VTO</text><text x="1450" y="655" text-anchor="middle" fill="#6ee7b7" font-family="Inter,Segoe UI,sans-serif" font-size="14">save or preview</text></g>
  <g filter="url(#s)"><rect x="690" y="565" width="260" height="140" rx="24" fill="#2c1b1b" stroke="#ef4444"/><text x="820" y="623" text-anchor="middle" fill="#fff" font-family="Inter,Segoe UI,sans-serif" font-size="20" font-weight="700">Judge compatibility</text><text x="820" y="655" text-anchor="middle" fill="#fca5a5" font-family="Inter,Segoe UI,sans-serif" font-size="14">no fake try-on action</text></g>
  <g filter="url(#s)"><rect x="350" y="565" width="260" height="140" rx="24" fill="#18181b" stroke="#3f3f46"/><text x="480" y="623" text-anchor="middle" fill="#fff" font-family="Inter,Segoe UI,sans-serif" font-size="20" font-weight="700">Rate + continue</text><text x="480" y="655" text-anchor="middle" fill="#a1a1aa" font-family="Inter,Segoe UI,sans-serif" font-size="14">latest visual context</text></g>
  <g filter="url(#s)"><rect x="70" y="565" width="200" height="140" rx="24" fill="#231d35" stroke="#7c3aed"/><text x="170" y="623" text-anchor="middle" fill="#fff" font-family="Inter,Segoe UI,sans-serif" font-size="20" font-weight="700">Shopping list</text><text x="170" y="655" text-anchor="middle" fill="#c4b5fd" font-family="Inter,Segoe UI,sans-serif" font-size="14">check · open · buy</text></g>
  <rect x="670" y="795" width="340" height="52" rx="26" fill="#27272a"/><text x="840" y="828" text-anchor="middle" fill="#d4d4d8" font-family="Inter,Segoe UI,sans-serif" font-size="16">Loop until the user loves the look</text>
</svg>
